<svg width="205" height="32" fill="currentColor" viewBox="0 0 205 32">
	<g fill="none" fillRule="evenodd">
		<path fill="#4A4A4A" d="M26.331 31.237h3.95V18.51h-3.95zM26.331 15.438h3.95V.956h-3.95zM17.554 31.237h3.95v-19.31h-3.95z"></path>
		<path fill="#46D7CE" d="M17.554 8.856h3.95v-7.9h-3.95zM8.777 31.237h3.95v-7.46h-3.95z"></path>
		<path fill="#4A4A4A" d="M8.777 20.705h3.95V.956h-3.95zM0 31.237h3.95V.957H0z"></path>
		<g fill="#4A4A4A">
			<path d="M59.42 15.933V.383h3.002v30.392h-3.001v-2.418c-1.001 1.293-2.877 2.919-5.92 2.919-4.378 0-8.422-3.086-8.422-9.173 0-5.961 4.002-9.047 8.421-9.047 3.336 0 5.128 1.835 5.92 2.877zm-5.586-.208c-2.96 0-5.67 2.168-5.67 6.378 0 3.711 2.084 6.504 5.67 6.504 3.669 0 5.753-3.043 5.753-6.462 0-4.46-3.085-6.42-5.753-6.42zm28.701.208v-2.46h3.002v17.302h-3.002v-2.418c-1 1.293-2.877 2.919-5.92 2.919-4.378 0-8.422-3.086-8.422-9.173 0-5.961 4.003-9.047 8.422-9.047 3.335 0 5.128 1.835 5.92 2.877zm-5.586-.208c-2.96 0-5.67 2.168-5.67 6.378 0 3.711 2.084 6.504 5.67 6.504 3.668 0 5.753-3.043 5.753-6.462 0-4.46-3.085-6.42-5.753-6.42zm21.53.5h-3.002v14.55h-3.002v-14.55h-1.834v-2.752h1.834V7.22h3.002v6.253h3.002v2.752zm17.278-.292v-2.46h3.001v17.302h-3.001v-2.418c-1 1.293-2.877 2.919-5.92 2.919-4.378 0-8.422-3.086-8.422-9.173 0-5.961 4.002-9.047 8.422-9.047 3.335 0 5.128 1.835 5.92 2.877zm-5.587-.208c-2.96 0-5.67 2.168-5.67 6.378 0 3.711 2.085 6.504 5.67 6.504 3.669 0 5.753-3.043 5.753-6.462 0-4.46-3.085-6.42-5.753-6.42zm12.942-2.252h3.335l5.128 11.757 5.42-13.09 5.378 13.09 5.17-11.757h3.335l-8.588 18.511-5.337-12.924-5.336 12.924-8.505-18.51zm40.208 17.803c-5.253 0-9.172-3.836-9.172-9.09 0-5.252 3.877-9.13 9.172-9.13 5.295 0 9.172 3.878 9.172 9.13 0 5.254-3.919 9.09-9.172 9.09zm0-15.551c-3.169 0-6.087 2.251-6.087 6.462 0 4.252 3.002 6.42 6.087 6.42 3.127 0 6.087-2.21 6.087-6.42 0-4.253-2.918-6.462-6.087-6.462zm12.442-2.252h3.335l5.128 11.757 5.42-13.09 5.378 13.09 5.17-11.757h3.335l-8.588 18.511-5.337-12.924-5.336 12.924-8.505-18.51z"></path>
		</g>
	</g>
</svg>